<svg width="25" height="25" viewBox="0 0 25 25" fill="none" xmlns="http://www.w3.org/2000/svg">
<path d="M21.1914 12.9066C21.0327 14.6243 20.388 16.2613 19.3329 17.626C18.2778 18.9907 16.8558 20.0267 15.2333 20.6127C13.6109 21.1988 11.8551 21.3106 10.1714 20.9352C8.48772 20.5598 6.94577 19.7126 5.72599 18.4928C4.5062 17.273 3.65903 15.7311 3.28361 14.0474C2.90818 12.3637 3.02003 10.6079 3.60607 8.98546C4.19211 7.36301 5.22809 5.94103 6.5928 4.88588C7.95751 3.83074 9.5945 3.18608 11.3122 3.02734C10.3065 4.3879 9.82261 6.06422 9.94843 7.75143C10.0742 9.43863 10.8015 11.0246 11.9978 12.221C13.1942 13.4173 14.7802 14.1445 16.4674 14.2704C18.1546 14.3962 19.8309 13.9122 21.1914 12.9066Z" stroke="#1C2428" stroke-width="2.01823" stroke-linecap="round" stroke-linejoin="round"/>
</svg>
